Coordinates
nRows=8
nColumns=24

# SIMM Motion File Header:
name Coordinates
datacolumns 24
datarows 8
otherdata 1
range 0.29666999999999999000 0.30367000000000000000
endheader
time	pelvis_tx	pelvis_ty	pelvis_tz	pelvis_tilt	pelvis_list	pelvis_rotation	hip_flexion_r	hip_adduction_r	hip_rotation_r	knee_angle_r	ankle_angle_r	subtalar_angle_r	mtp_angle_r	hip_flexion_l	hip_adduction_l	hip_rotation_l	knee_angle_l	ankle_angle_l	subtalar_angle_l	mtp_angle_l	lumbar_extension	lumbar_bending	lumbar_rotation
      0.29666999999999999000	     -2.11421579161836040000	      0.96625664359243890000	      0.20665514546730895000	      3.59157959276991430000	      2.99125820745204460000	     -4.03734955487430550000	     -3.47742334938747750000	     -5.89087024786466970000	      8.52037139329712370000	    -44.27209317311751100000	      0.18587375147542975000	     -0.00000000000000062844	     -0.00000000000000091080	      2.38354025217544410000	      2.55445004821662720000	      4.56563021897034550000	     -5.40580913418409550000	     -0.51769300542289187000	     -0.00000000000001747960	     -0.00000000000000689809	     -7.80312223107875620000	     -8.07119967405012240000	      7.17355827418047380000
      0.29766999999999999000	     -2.11356462119304260000	      0.96631595223213429000	      0.20656094422211563000	      3.59239640731671360000	      2.97727483619746770000	     -4.02238755047552400000	     -3.40475918202882700000	     -5.86420223612673210000	      8.55232441810329110000	    -44.29412426320341500000	      0.34864899506110891000	     -0.00000000000000064450	     -0.00000000000000089970	      2.33188373661546850000	      2.54911310130979940000	      4.59066615431278540000	     -5.39253130575661380000	     -0.47996983473254634000	     -0.00000000000001784375	     -0.00000000000000676957	     -7.81310319905042140000	     -8.05939164150371920000	      7.16583011889314040000
      0.29866999999999999000	     -2.11291446051334210000	      0.96637489332646109000	      0.20646695091528630000	      3.59297750089139270000	      2.96417782882723200000	     -4.00777286681486270000	     -3.33147873057631070000	     -5.83865582131352400000	      8.58406690333104020000	    -44.31460146928412100000	      0.49905702925323969000	     -0.00000000000000066564	     -0.00000000000000087285	      2.28071303311522610000	      2.54482256446377520000	      4.61426822247929460000	     -5.37952462891558450000	     -0.44208971813947556000	     -0.00000000000001820099	     -0.00000000000000660331	     -7.82275965766051500000	     -8.04850603089181680000	      7.15817609974821070000
      0.29966999999999999000	     -2.11226566806157300000	      0.96643333525272201000	      0.20637323967751156000	      3.59323865101021190000	      2.95227975557226370000	     -3.99362845029996640000	     -3.25736288584387610000	     -5.81462637093632750000	      8.61552456456031560000	    -44.33297435994982300000	      0.63272623927337390000	     -0.00000000000000069365	     -0.00000000000000082493	      2.23020110175392890000	      2.54194752465489550000	      4.63592894818060850000	     -5.36688581774253850000	     -0.40399039694881272000	     -0.00000000000001854865	     -0.00000000000000638536	     -7.83197595991601770000	     -8.03886791066285690000	      7.15062259579274870000
      0.30066999999999999000	     -2.11161687560980350000	      0.96649177717898294000	      0.20627952843973685000	      3.59349980112903070000	      2.94038168231729590000	     -3.97948403378506970000	     -3.18324704111144200000	     -5.79059692055913010000	      8.64698222578959100000	    -44.35134725061552500000	      0.76639544929350822000	     -0.00000000000000072167	     -0.00000000000000077700	      2.17968917039263130000	      2.53907248484601580000	      4.65758967388192250000	     -5.35424700656949250000	     -0.36589107575814983000	     -0.00000000000001889630	     -0.00000000000000616741	     -7.84119226217152040000	     -8.02922979043389700000	      7.14306909183728770000
      0.30166999999999999000	     -2.11097070342007600000	      0.96654904606082015000	      0.20618633801290862000	      3.59312593005388290000	      2.92981717257134690000	     -3.96590984320823560000	     -3.10777464269848690000	     -5.76820034840553840000	      8.67786200889953290000	    -44.36597437689329100000	      0.87861121508416395000	     -0.00000000000000073319	     -0.00000000000000076683	      2.13042543648008700000	      2.53781320226509120000	      4.67652157038543680000	     -5.34242460768204270000	     -0.32615853473281231000	     -0.00000000000001921114	     -0.00000000000000598810	     -7.84964241731978160000	     -8.02087886356767930000	      7.13554476182642450000
      0.30266999999999999000	     -2.11032475188429290000	      0.96660621615983522000	      0.20609319144390376000	      3.59269858343729660000	      2.91936496306256380000	     -3.95238367172284290000	     -3.03218800803130020000	     -5.74594128197292250000	      8.70869312852294900000	    -44.38028606995300900000	      0.98902037259655284000	     -0.00000000000000074332	     -0.00000000000000075984	      2.08126681407410040000	      2.53668998363513240000	      4.69522367043454650000	     -5.33067095939602890000	     -0.28628845921921303000	     -0.00000000000001952321	     -0.00000000000000581204	     -7.85802805472946900000	     -8.01263633207891420000	      7.12802288857211950000
      0.30367000000000000000	     -2.10967994222514620000	      0.96666283811151565000	      0.20600023912706172000	      3.59205488809946210000	      2.90898994771989680000	     -3.93889030011121920000	     -2.95626220036494570000	     -5.72372938833182410000	      8.73918486368708970000	    -44.39304620796468000000	      1.09680655223722860000	     -0.00000000000000075585	     -0.00000000000000075002	      2.03255899750722510000	      2.53569511969750220000	      4.71335392457332960000	     -5.31927905279842590000	     -0.24560027217500699000	     -0.00000000000001982476	     -0.00000000000000563797	     -7.86620658061716950000	     -8.00438039224724210000	      7.12037923618189250000
